<svg id="Livello_1" data-name="Livello 1" xmlns="http://www.w3.org/2000/svg" xmlns:xlink="http://www.w3.org/1999/xlink" width="684.3" height="150.7" viewBox="0 0 684.3 150.7"><defs><linearGradient id="Sfumatura_senza_nome" x1="-1054.5" y1="-307.08" x2="-1054.5" y2="-306.61" gradientTransform="translate(40577.9 17475.7) scale(38.12 56.62)" gradientUnits="userSpaceOnUse"><stop offset="0" stop-color="#233039"/><stop offset="1" stop-color="#4c697d"/></linearGradient><linearGradient id="Sfumatura_senza_nome_2" x1="-1054.33" y1="-307.09" x2="-1054.33" y2="-306.61" gradientTransform="translate(40484 17494) scale(38.08 56.68)" xlink:href="#Sfumatura_senza_nome"/><linearGradient id="Sfumatura_senza_nome_3" x1="-1054.35" y1="-308.51" x2="-1054.35" y2="-307.89" gradientTransform="translate(40214.4 24398.6) scale(37.79 78.88)" xlink:href="#Sfumatura_senza_nome"/><linearGradient id="Sfumatura_senza_nome_4" x1="-1054.21" y1="-308.51" x2="-1054.21" y2="-307.89" gradientTransform="translate(40151.2 24403.6) scale(37.77 78.89)" xlink:href="#Sfumatura_senza_nome"/><linearGradient id="Sfumatura_senza_nome_5" x1="-1056.85" y1="-308.11" x2="-1056.85" y2="-307.63" gradientTransform="translate(47995.2 23006.5) scale(45.08 74.51)" xlink:href="#Sfumatura_senza_nome"/><mask id="mask" x="2.3" y="43.16" width="27.3" height="56.45" maskUnits="userSpaceOnUse"><g transform="translate(-0.2 0.2)"><g id="mask-4"><polygon id="path-3" points="2.5 43 2.5 99.3 29.8 99.3 29.8 43 2.5 43" fill="#fff"/></g></g></mask><mask id="mask-2" x="2.3" y="41.5" width="288" height="58.6" maskUnits="userSpaceOnUse"><g transform="translate(-0.2 0.2)"><g id="mask-6"><polygon id="path-5" points="2.5 99.9 290.5 99.9 290.5 41.3 2.5 41.3 2.5 99.9" fill="#fff"/></g></g></mask></defs><title>logo-not-front</title><g id="logo"><g id="logo-2" data-name="logo"><path id="Shape" d="M389.7,96.2a38.3,38.3,0,0,1-9.8,15.2,35.7,35.7,0,0,1-8.4,6h-.3l-2.4,1.2c-4.2,2-7.5,3.2-9.3,3.3h-.6v-.2a84.2,84.2,0,0,1,1.2-14.2c.2-.9.3-1.9.5-2.7h0l.6-2.6V102h0c.6-2.3,1.3-4.5,2.1-6.7a34.8,34.8,0,0,1,4.9-9.5h0v-.2a31.7,31.7,0,0,1,18.3-13.1h.1c.5-.1,2.3-.5,3.4.1a4,4,0,0,1,1.8,2.9h0C392.5,78.1,393.1,86.9,389.7,96.2Z" transform="translate(-0.2 0.2)" fill="url(#Sfumatura_senza_nome)"/><path id="Shape-2" data-name="Shape" d="M316.8,75.5h0a4.1,4.1,0,0,1,1.8-2.9c1.1-.6,2.9-.2,3.4-.1h.1a31.4,31.4,0,0,1,18.3,13.1v.2h0c.6.7,2.7,3.8,4.9,9.5.8,2.2,1.5,4.4,2.1,6.7h0l.6,2.6h0a25.6,25.6,0,0,1,.5,2.7,85.1,85.1,0,0,1,1.2,14.2v.2h-.6c-1.8-.1-5.1-1.2-9.3-3.3l-2.4-1.2h-.3a49.4,49.4,0,0,1-8.4-6,38.3,38.3,0,0,1-9.8-15.2A48.2,48.2,0,0,1,316.8,75.5Z" transform="translate(-0.2 0.2)" fill="url(#Sfumatura_senza_nome_2)"/><path id="Shape-3" data-name="Shape" d="M388.8,67.7c0,.2-.1,2.2-1.5,2.7h-1a33.5,33.5,0,0,0-17.5,11.2l-1.5,1.9c-.1.1-2.1,3.3-3.6,5.9h0a56.3,56.3,0,0,0-4,10.3,84.7,84.7,0,0,0-2.9,22.8h-.5c-.4,0-.5-.1-.6-.6s-.2-2.5-.3-3.9V103a15.5,15.5,0,0,1,.1-2.2A94.9,94.9,0,0,1,358.2,84h0v-.7l.4-1.4v-.5h0l.9-2.8a64.1,64.1,0,0,1,3.2-7.8,49.7,49.7,0,0,1,11.1-15.5,6.6,6.6,0,0,1,1.7-1.2h0a4,4,0,0,1,2.9-.6,10.6,10.6,0,0,1,2.5.9h0C384.4,55.7,388.6,59.1,388.8,67.7Z" transform="translate(-0.2 0.2)" fill="url(#Sfumatura_senza_nome_3)"/><path id="Shape-4" data-name="Shape" d="M327.6,54.3h0a12.5,12.5,0,0,1,2.5-.9,4,4,0,0,1,2.9.6h0a6.6,6.6,0,0,1,1.7,1.2,49.7,49.7,0,0,1,11.1,15.5,56.3,56.3,0,0,1,3.1,7.7l.9,2.8h0v.5l.4,1.4c0,.1.1.1.1.2v.5h0a94.9,94.9,0,0,1,2.7,16.8,15.5,15.5,0,0,1,.1,2.2v15.4l-.3,3.9c0,.5-.1.6-.6.6H352a84.3,84.3,0,0,0-2.9-22.8,53.6,53.6,0,0,0-4-10.3h0c-1.4-2.6-3.5-5.7-3.6-5.9L340,81.8a33.6,33.6,0,0,0-17.4-11.2h-1c-1.4-.5-1.5-2.5-1.5-2.7C320.3,59.1,324.5,55.7,327.6,54.3Z" transform="translate(-0.2 0.2)" fill="url(#Sfumatura_senza_nome_4)"/><path id="Shape-5" data-name="Shape" d="M374.1,52.8h0c-2.5,2.1-8.7,7.9-13.7,19l-.9,2.3a94.5,94.5,0,0,0-3.9,12.8h0c-.4,1.9-.8,3.9-1.1,6h-.2c-.2-1.4-.4-2.7-.7-4h0c-.1-.7-.3-1.4-.4-2.1h0c-1.1-4.6-2.5-9.2-2.6-9.3l-.2-.6-.3-.7h0l-.3-.7v-.4h0c-.8-2-1.5-3.7-1.7-4-4.9-10.5-10.8-16.1-13.2-18-.3-.3-.3-.6-.2-.7h0a19.4,19.4,0,0,1,2.7-4.3l16.5-20.1a.9.9,0,0,1,.7-.3h0a.9.9,0,0,1,.7.3l16.5,20.5a13.9,13.9,0,0,1,2.6,4.1Z" transform="translate(-0.2 0.2)" fill="url(#Sfumatura_senza_nome_5)"/></g><g id="Group-30"><polygon id="Fill-21" points="445.4 41.5 453 41.5 437.6 100 430.5 100 415.1 41.5 422.7 41.5 434 84.7 445.4 41.5" fill="#cf9c23"/><polygon id="Fill-22" points="471.1 100 479.1 100 479.1 41.5 471.1 41.5 471.1 100" fill="#cf9c23"/><path id="Fill-23" d="M505.2,63V92.5H523v7.4H497.8V41.3H523v7.4H505.2v6.9h1.9a14.8,14.8,0,0,1,5.3,1.2l1,.4c1.9.7,4.1-1.1,5-1.8l4.8,5.6a13.4,13.4,0,0,1-8.9,3.7,12.7,12.7,0,0,1-3.4-.5l-1.1-.4a5.4,5.4,0,0,0-2.7-.8h-1.9" transform="translate(-0.2 0.2)" fill="#cf9c23"/><g id="Group-44"><polygon id="Fill-25" points="656.7 93.6 671.9 93.6 671.9 86.3 656.7 86.3 656.7 93.6" fill="#cf9c23"/><path id="Fill-24" d="M661.5,53.5a20.9,20.9,0,0,0,1.5-4.9h-8.4V41.2h22.7V99.7H670V51.3a29.6,29.6,0,0,1-1.7,5h-.1c-2.1,4.9-5.1,9.1-8,13.3s-6.5,9.4-8.5,14.8-1.7,10-1.7,15.3h-7.3c0-5.7,0-12.1,2.2-17.9s5.8-11.2,9.3-16.3a102.3,102.3,0,0,0,7.3-12.1" transform="translate(-0.2 0.2)" fill="#cf9c23"/></g><g id="Group-22"><path id="Fill-27" d="M615.6,86.1h7.3V41.2h-7.3V63.7a26.9,26.9,0,0,0-3-3.3,34.1,34.1,0,0,0-6.7-5c-4.2-2.7-6.6-4-6.6-9.8V41.2H592V99.8h7.3v-40l2.7,1.8a26.3,26.3,0,0,1,5.3,4c1.4,1.4,8.1,8.7,8.1,18.1v2.4Z" transform="translate(-0.2 0.2)" fill="#cf9c23"/><polygon id="Fill-28" points="609.9 100 622.7 100 622.7 93.6 609.9 93.6 609.9 100" fill="#cf9c23"/></g><g id="Group-37"><path id="Fill-26" d="M565.1,86.1h7.3V41.2h-7.3V63.7a26.9,26.9,0,0,0-3-3.3,34.1,34.1,0,0,0-6.7-5c-4.2-2.7-6.6-4-6.6-9.8V41.2h-7.3V99.8h7.3v-40l2.7,1.8a26.3,26.3,0,0,1,5.3,4c1.4,1.4,8.1,8.7,8.1,18.1v2.4Z" transform="translate(-0.2 0.2)" fill="#cf9c23"/><polygon id="Fill-29" points="559.4 100 572.1 100 572.1 93.6 559.4 93.6 559.4 100" fill="#cf9c23"/></g></g><g id="Page-1"><g id="Group-3"><g id="Fill-1-Clipped"><g mask="url(#mask)"><path id="Fill-1" d="M9.4,92.1C17.3,90,22.8,81.4,22.8,71.2S17.3,52.4,9.4,50.3ZM29.8,71.2C29.8,85.3,21,97.3,9.4,99H9.2a19.5,19.5,0,0,1-3.4.3l-2.6-.2H2.5v-.5h0V43.1a24.8,24.8,0,0,1,6.9.3h.9c11.1,2.4,19.5,14,19.5,27.5Z" transform="translate(-0.2 0.2)" fill="#4c697d"/></g></g></g><path id="Fill-4" d="M42.5,77.7c0-.1,0-.1.1-.1s.5-.5,5.9-7.2l2.2-2.7c6.3-7.8,7.6-9.2,7.6-12.2V50.1H42.5ZM68.6,92.3v7c-6.6,0-10.7-.1-15.4-3A21.1,21.1,0,0,1,45,85.8l-.7.9-1.7,2.1V99.6h-7V43.7h.1V43H58.8c1.6,0,3.5-.1,5,1.5s1.6,3.7,1.6,8.2v2.8c0,5.5-2.4,8.3-9.2,16.7L54,74.9c-1.4,1.6-2.3,2.9-3.2,3.9A14.4,14.4,0,0,0,57,90.5c2.9,1.6,5.4,1.8,11.6,1.8Z" transform="translate(-0.2 0.2)" fill="#4c697d"/><path id="Fill-6" d="M129.8,50.1H114.5V70.3c.5-.5,1.8-1.9,5.7-5.5l2.2-2.1c6.4-6.2,7.4-7.2,7.4-9V50.1Zm7.1,3.6c0,4.9-2.7,7.4-9.6,14.1l-2.2,2.1L119.9,75l-.8.7H119l-.3.3-.6.7-2.8,2.6-.8.8V99.3h-7.1V43h22.7c1.8,0,3.6-.1,5.1,1.5s1.6,3.4,1.6,7v2.2Z" transform="translate(-0.2 0.2)" fill="#4c697d"/><polygon id="Fill-8" points="176.3 93.1 193.5 93.1 193.5 99.5 176.3 99.5 169.4 99.5 169.2 99.5 169.2 43.2 176.3 43.2 176.3 93.1" fill="#4c697d"/><path id="Fill-10" d="M221.5,48.6c-11.4,1.3-19,11.2-19,22s7.6,20.7,19,22h.5v7.2h-.7C206.4,97.3,195,84.9,195,70.6s11.4-26.7,26.3-29.2h.7v7.2Z" transform="translate(-0.2 0.2)" fill="#4c697d"/><path id="Fill-12" d="M250.6,70.7a12.7,12.7,0,1,0-12.7,12.7,12.8,12.8,0,0,0,12.7-12.7m6.6-.1a19.4,19.4,0,1,1-19.3-19.3,19.4,19.4,0,0,1,19.3,19.3" transform="translate(-0.2 0.2)" fill="#4c697d"/><g id="Fill-14-Clipped"><g mask="url(#mask-2)"><polygon id="Fill-14" points="277.3 99.5 290.3 99.5 290.3 94 277.3 94 277.3 99.5" fill="#4c697d"/></g></g><g id="Fill-16-Clipped"><g mask="url(#mask-2)"><path id="Fill-16" d="M283.4,83.8v2.7h7.1V43h-7.1V64.6a25.3,25.3,0,0,0-2.9-3.2,35.9,35.9,0,0,0-6.5-4.8c-4.1-2.6-6.4-3.9-6.4-9.5V43h-7.1V99.3h7.1V60.9l2.6,1.7a29,29,0,0,1,5.2,3.8c1.5,1.3,8,8.4,8,17.4" transform="translate(-0.2 0.2)" fill="#4c697d"/></g></g><g id="Fill-17-Clipped"><g mask="url(#mask-2)"><path id="Fill-17" d="M141.6,43v7.1h8.2a21,21,0,0,1-1.5,4.7,68.2,68.2,0,0,1-7.1,11.6c-3.4,4.9-6.8,9.9-9,15.7s-2.1,11.8-2.1,17.2h7.1c0-5.1,0-10.2,1.7-14.7s5-9.5,8.2-14.2,5.7-8.1,7.7-12.8h.1a38.5,38.5,0,0,0,1.6-4.8v33H144.1v6.4h12.4v7.2h7.1V43Z" transform="translate(-0.2 0.2)" fill="#4c697d"/></g></g><g id="Fill-18-Clipped"><g mask="url(#mask-2)"><path id="Fill-18" d="M98.1,43H94V83a20.4,20.4,0,0,1-.3,3.4,8.3,8.3,0,0,1-1.3,3.2,8.5,8.5,0,0,1-2.8,2.5,8.7,8.7,0,0,1-3.7.9,9.1,9.1,0,0,1-3.7-.9,7.6,7.6,0,0,1-2.8-2.5A11.5,11.5,0,0,1,78,86.4a21.4,21.4,0,0,1-.3-3.4V43H70.5V85.2a14.3,14.3,0,0,0,.8,3.8A13.3,13.3,0,0,0,74,93.7a16.5,16.5,0,0,0,5.1,4,17,17,0,0,0,6.1,1.6h1.4a15.2,15.2,0,0,0,6.1-1.6,15.9,15.9,0,0,0,5.1-4,12.5,12.5,0,0,0,2.7-4.7,14.3,14.3,0,0,0,.8-3.8V43Z" transform="translate(-0.2 0.2)" fill="#4c697d"/></g></g><g id="Fill-19-Clipped"><g mask="url(#mask-2)"><polygon id="Fill-19" points="226.7 99.5 246.8 99.5 246.8 94.3 226.7 94.3 226.7 99.5" fill="#4c697d"/></g></g></g></g><g id="line-top"><path id="Path-3-3" data-name="Path-3" d="M333.3,120.1.2,119.9" transform="translate(-0.2 0.2)" fill="none" stroke="#cd9b23" stroke-width="3"/><path id="Path-3-4" data-name="Path-3" d="M333.3,120.1" transform="translate(-0.2 0.2)" fill="none" stroke="#cd9b23" stroke-width="3"/><path id="Path-3-5" data-name="Path-3" d="M376.2,120.1" transform="translate(-0.2 0.2)" fill="none" stroke="#cd9b23" stroke-width="3"/><path id="Path-3-6" data-name="Path-3" d="M683.8,120.2,376.2,120" transform="translate(-0.2 0.2)" fill="none" stroke="#cd9b23" stroke-width="3"/><path id="Path-3-Copy" d="M339,125H.4" transform="translate(-0.2 0.2)" fill="none" stroke="#cd9b23"/><path id="Path-3-Copy-2" data-name="Path-3-Copy" d="M339,125" transform="translate(-0.2 0.2)" fill="none" stroke="#cd9b23"/><path id="Path-3-Copy-3" data-name="Path-3-Copy" d="M367.7,125" transform="translate(-0.2 0.2)" fill="none" stroke="#cd9b23"/><path id="Path-3-Copy-4" data-name="Path-3-Copy" d="M684.5,125H367.7" transform="translate(-0.2 0.2)" fill="none" stroke="#cd9b23"/></g>

<path id="date" fill-rule="evenodd" clip-rule="evenodd" fill="#4C697D" d="M271.1,2.2c0.7,1,0.8,2.2,0.5,3.6l-4.1,9.8h0.1h3.9v2.1
  h-4.8h-2.4l5.1-12.1c0.3-0.8,0.3-1.7,0-2.3c-0.5-0.7-1.4-0.8-1.7-0.8c-0.8,0-1.4,0.6-1.7,1.1c-0.2,0.2-0.5,1.1,0,1.8
  c0.1,0.2,0.2,0.2,0.2,0.3c0.1,0.1,0.1,0.1,0.2,0.1h-2.6c-0.5-1.1-0.3-2.3,0.2-3.3c0.8-1.4,2.1-2.2,3.6-2.2
  C268.7,0.4,270.3,0.8,271.1,2.2z M283.7,9.7h4.9V7.9h-4.9V9.7z M298.4,2.2c0.7,1,0.8,2.2,0.5,3.6l-4.1,9.8h0.1h3.9v2.1H294h-2.4
  l5.1-12.1c0.3-0.8,0.3-1.7,0-2.3c-0.5-0.7-1.4-0.8-1.7-0.8c-0.8,0-1.4,0.6-1.7,1.1c-0.2,0.2-0.5,1.1,0,1.8c0.1,0.2,0.2,0.2,0.2,0.3
  c0.1,0.1,0.1,0.1,0.2,0.1H291c-0.5-1.1-0.3-2.3,0.2-3.3c0.8-1.4,2.1-2.2,3.6-2.2C296.1,0.4,297.6,0.8,298.4,2.2z M308.3,4.6
  c0,0.5-0.1,1-0.2,1.4l-4.5,11.6h-2.3l3.4-8.9c-0.2,0-0.5,0.1-0.6,0.1c-2.3,0-4.2-1.9-4.2-4.2c0-2.3,1.9-4.2,4.2-4.2
  C306.4,0.4,308.3,2.3,308.3,4.6z M306.2,4.6c0-1.1-0.9-2.1-2.1-2.1c-1.1,0-2.1,0.9-2.1,2.1s0.9,2.1,2.1,2.1
  C305.3,6.6,306.2,5.7,306.2,4.6z M417.4,1.8c0.7,1,0.8,2.1,0.5,3.5l-4,9.6h0.1h3.9V17H413h-2.4l5.1-11.9c0.3-0.8,0.3-1.6,0-2.2
  c-0.5-0.7-1.4-0.8-1.7-0.8c-0.8,0-1.4,0.5-1.7,1.1c-0.2,0.2-0.5,1.1,0,1.8c0.1,0.2,0.2,0.2,0.2,0.3c0.1,0.1,0.1,0.1,0.2,0.1h-2.5
  c-0.5-1.1-0.3-2.2,0.2-3.2c0.7-1.4,2-2.2,3.4-2.2C415,0.1,416.5,0.6,417.4,1.8z M435.6,0.3L435.6,0.3v2.1v14.7h-2.1V2.9V2.4h-0.8
  h-0.5v-2H435.6z M446.6,2.1c-4.6,4.6-5.3,15-5.3,15h-2.1c0.1-0.5,0.6-9.2,4.4-14.7h-4.9v-2h7.4h0.5L446.6,2.1z M425.2,1.1
  c3.2,0,5.7,2.6,5.7,5.7s-2.6,5.7-5.7,5.7c-3.2,0-5.7-2.5-5.7-5.7C419.5,3.7,422,1.1,425.2,1.1z M425.2,10.5c2,0,3.6-1.7,3.6-3.6
  s-1.7-3.6-3.6-3.6c-2,0-3.6,1.7-3.6,3.6C421.6,8.9,423.3,10.5,425.2,10.5z M420.9,15.2h8.5v-1.4h-8.5V15.2z M322.2,11.6
  c0,1.4-0.5,3.2-1.9,4.3c-1.1,0.9-2.6,1.3-4.2,1.3c-0.8,0-1.6-0.1-2.3-0.2v-2.1v-0.1c1.4,0.2,3.8,0.6,5.1-0.5
  c0.8-0.6,1.1-1.7,1.1-2.6c0-1.4-1-2.1-2.4-3.1c-0.3-0.2-0.7-0.5-0.9-0.7c-1.4-1.1-2.2-2.4-2.3-3.8c0-1.1,0.5-2.1,1.3-2.8
  c1.4-1.3,3.5-1.4,4.7-0.2L319,2.5c-0.3-0.2-1.1-0.2-1.8,0.3c-0.5,0.3-0.6,0.8-0.6,1.1c0,0.8,0.6,1.5,1.4,2.3
  c0.2,0.2,0.5,0.5,0.8,0.6C320.3,7.8,322.2,9.1,322.2,11.6z M326,6.5V15h5.2v2.2h-7.4V0.3V0.1h7.3v2.2h-5.2v2h0.6
  c0.7,0,1.1,0.2,1.6,0.3l0.2,0.1c0.6,0.2,1.1-0.3,1.5-0.5l1.4,1.6c-0.8,0.8-1.7,1.1-2.6,1.1c-0.3,0-0.7-0.1-1-0.2
  c-0.1-0.1-0.2-0.1-0.3-0.1c-0.3-0.2-0.6-0.2-0.8-0.2C326.3,6.5,326.2,6.5,326,6.5z M340.7,3.4c0,1.5-0.8,2.3-2.9,4.2l-0.7,0.7
  l-1.6,1.5l-0.2,0.2l-0.1,0.1c0,0.1-0.1,0.1-0.2,0.2c-0.1,0.1-0.5,0.5-0.8,0.8l-0.2,0.2v5.8h-2.2v-17h0.7h5.9h0.2
  c0.6,0,1.1,0,1.6,0.5c0.5,0.5,0.5,1,0.5,2.1V3.4z M338.5,2.3h-0.2h-1.1h-0.2h-3.2v6c0.2-0.2,0.6-0.6,1.7-1.7
  c0.2-0.2,0.5-0.5,0.7-0.7c1.9-1.8,2.3-2.2,2.3-2.7V2.8L338.5,2.3L338.5,2.3z M347.3,2.3v14.9h-2.2V2.3h-3.8V0.1h9.7v2.2H347.3z
   M353.7,6.5V15h5.2v2.2h-7.3V0.3V0.1h7.3v2.2h-5.2v2h0.6c0.7,0,1.1,0.2,1.6,0.3l0.2,0.1c0.6,0.2,1.1-0.3,1.5-0.5l1.4,1.6
  c-0.8,0.8-1.7,1.1-2.6,1.1c-0.3,0-0.7-0.1-1-0.2c-0.1-0.1-0.2-0.1-0.3-0.1c-0.3-0.2-0.6-0.2-0.8-0.2C354.1,6.4,353.9,6.5,353.7,6.5z
   M367.9,0.1h1.9v17h-2.2v-11c-0.5,0.6-0.8,1.1-1.1,1.7c-0.2,0.2-0.5,0.6-0.6,0.8c-0.5,0.6-0.8,1.3-1.1,1.8c-0.3-0.7-0.8-1.3-1.1-1.8
  c-0.2-0.2-0.5-0.6-0.6-0.8c-0.5-0.6-0.8-1.1-1.1-1.7v11h-2.2V0.3V0.3h1.9c0.1,0.8,0.2,1.6,0.5,2.3c0.6,1.6,1.5,2.9,2.5,4.2l0.2,0.2
  l0.2-0.2c1-1.4,1.8-2.7,2.5-4.2C367.7,1.7,367.9,0.9,367.9,0.1z M380.3,12.1L380.3,12.1c-1.4,4.9-6.8,5.3-8.6,5.3H371v-0.2V0.4h1.3
  h3.6c0.7,0,1.1,0,1.7,0.5c0.5,0.5,0.5,1,0.5,1.8v0.5c0,0.8-0.3,1.4-1.1,2.2c1.1,0.5,2.1,1.3,2.6,2.2
  C380.8,9.6,380.3,11.9,380.3,12.1z M375.6,2.5h-2.6v3l0.6-0.5l0.6-0.5c1-0.8,1.6-1.3,1.6-1.5V2.5V2.5H375.6z M377.6,8.6
  c-0.6-0.8-1.6-1.4-2.9-1.7l-0.5,0.5l-0.5,0.5l-0.1,0.1l-0.6,0.5v6.9c1.8-0.2,4.4-1,5.1-3.6C378.2,11.4,378.4,9.8,377.6,8.6z
   M383.7,6.5V15h5.2v2.2h-7.3V0.3V0.1h7.3v2.2h-5.2v2h0.6c0.7,0,1.1,0.2,1.6,0.3l0.2,0.1c0.6,0.2,1.1-0.3,1.5-0.5l1.4,1.6
  c-0.8,0.8-1.7,1.1-2.6,1.1c-0.3,0-0.7-0.1-1-0.2c-0.1-0.1-0.2-0.1-0.3-0.1c-0.3-0.2-0.6-0.2-0.8-0.2C384.1,6.5,384,6.5,383.7,6.5z
   M399.6,15v2.2c-2,0-3.2,0-4.7-0.9c-1.1-0.7-2-1.8-2.5-3.2l-0.2,0.2l-0.5,0.7v3.2h-2.2V0.4V0.1h6.5h0.1h0.2h0.2c0.5,0,1.1,0,1.5,0.5
  c0.5,0.5,0.5,1.1,0.5,2.5v0.8c0,1.7-0.8,2.5-2.7,5l-0.7,0.8c-0.5,0.5-0.7,0.9-0.9,1.1c-0.1,1.3,0.8,2.9,1.8,3.5
  C397,14.9,397.7,15,399.6,15z M391.7,10.6L391.7,10.6c0-0.1,0.2-0.2,1.8-2.3l0.7-0.8c1.9-2.3,2.3-2.7,2.3-3.6V3.1V2.3h-0.2h-1.1
  h-0.2h-3.3L391.7,10.6L391.7,10.6z M281.6,13.5c0,2.3-1.8,4.2-4.2,4.2c-2.3,0-4.2-1.8-4.2-4.2c0-0.5,0.1-1,0.2-1.4l4.5-11.6h2.3
  l-3.5,8.8c0.2,0,0.5-0.1,0.6-0.1C279.7,9.3,281.6,11.2,281.6,13.5z M279.4,13.5c0-1.1-0.9-2.1-2.1-2.1c-1.1,0-2.1,0.9-2.1,2.1
  c0,1.1,0.9,2.1,2.1,2.1C278.5,15.5,279.4,14.6,279.4,13.5z"/>
<g>
  <path fill="#4C697D" d="M201.7,149.6h0.4c0.3,0,0.4,0.1,0.4,0.4c0,0.3-0.1,0.4-0.4,0.4H200c-0.1-0.1-0.1-0.2-0.1-0.3
    c0-0.3,0.1-0.4,0.4-0.4h0.4v-9l-3.6,2.6h-0.7l-3.5-2.1v8.5h0.4c0.3,0,0.4,0.1,0.4,0.4c0,0.3-0.1,0.4-0.4,0.4h-1.7
    c-0.3,0-0.4-0.1-0.4-0.4s0.1-0.4,0.4-0.4h0.4v-9.1h-0.5c-0.3,0-0.4-0.1-0.4-0.4c0-0.1,0-0.2,0.1-0.3h0.8l0.6,0.2l4.2,2.6l3.5-2.6
    l0.5-0.2h1.3c0.3,0,0.4,0.2,0.4,0.5s-0.1,0.5-0.4,0.5h-0.4L201.7,149.6z"/>
  <path fill="#4C697D" d="M205.2,149.6h3.8l1.8-1.7h0.3c0.2,0,0.4,0.1,0.4,0.3v0.3l-1.2,1.9c-0.1,0.2-0.3,0.2-0.5,0.2h-6
    c-0.3,0-0.4-0.1-0.4-0.4s0.1-0.4,0.4-0.4h0.4v-9.1h-0.4c-0.3,0-0.4-0.2-0.4-0.5s0.1-0.5,0.4-0.5h4l0.5,0.2l1.1,1.2v0.5h-0.6
    l-1.2-1.1h-2.5v1.9h1.8c-0.1-0.1-0.1-0.2-0.1-0.3c0-0.1,0-0.2,0.1-0.3h0.4l0.3,0.2l0.7,1.2v0.5H208l-0.3-0.2l-0.2-0.3h-2.4
    L205.2,149.6z"/>
  <path fill="#4C697D" d="M211.6,148.1c0-0.3,0.1-0.6,0.3-0.9c0.1-0.2,0.3-0.4,0.6-0.4l0.5,0.2c0.1,0.1,0.2,0.3,0.2,0.5
    c0,0.4-0.2,0.8-0.5,1c0.1,0.5,0.4,0.9,0.8,1.1c0.4,0.3,0.8,0.4,1.3,0.4c0.6,0,1.3-0.2,1.7-0.7c0.4-0.4,0.6-1,0.6-1.6
    c0-0.6-0.2-1.2-0.7-1.6l-1.3-1l-0.9-0.6c-0.5-0.3-1-0.7-1.4-1.2c-0.3-0.5-0.5-1-0.5-1.6c0-0.6,0.2-1.2,0.7-1.6
    c0.5-0.4,1.1-0.7,1.7-0.7c0.6,0,1.1,0.1,1.6,0.4c0.4,0.2,0.7,0.6,0.7,1.1c0,0.2-0.1,0.4-0.2,0.5l-0.5,0.2c-0.3,0-0.5-0.1-0.7-0.3
    c-0.2-0.1-0.3-0.3-0.3-0.5c0-0.1,0-0.3,0.1-0.4c-0.1-0.2-0.3-0.3-0.7-0.3c-0.4,0-0.7,0.1-1,0.4c-0.3,0.3-0.4,0.6-0.4,1
    c0,0.6,0.5,1.2,1.6,1.9l0.9,0.6l0.8,0.6l0.7,0.7c0.6,0.6,0.9,1.5,0.8,2.3c0,0.9-0.3,1.7-1,2.3c-0.6,0.6-1.4,0.9-2.3,0.9
    c-0.8,0-1.7-0.3-2.3-0.8C211.9,149.5,211.6,148.8,211.6,148.1z"/>
  <path fill="#4C697D" d="M218.5,148.1c0-0.3,0.1-0.6,0.3-0.9c0.1-0.2,0.3-0.4,0.6-0.4l0.5,0.2c0.1,0.1,0.2,0.3,0.2,0.5
    c0,0.4-0.2,0.8-0.5,1c0.1,0.5,0.4,0.9,0.8,1.1c0.4,0.3,0.8,0.4,1.3,0.4c0.6,0,1.3-0.2,1.7-0.7c0.4-0.4,0.6-1,0.6-1.6
    c0-0.6-0.2-1.2-0.7-1.6l-1.3-1l-0.9-0.6c-0.5-0.3-1-0.7-1.4-1.2c-0.3-0.5-0.5-1-0.5-1.6c0-0.6,0.2-1.2,0.7-1.6
    c0.5-0.4,1.1-0.7,1.7-0.7c0.6,0,1.1,0.1,1.6,0.4c0.4,0.2,0.7,0.6,0.7,1.1c0,0.2-0.1,0.4-0.2,0.5l-0.5,0.2c-0.3,0-0.5-0.1-0.7-0.3
    c-0.2-0.1-0.3-0.3-0.3-0.5c0-0.1,0-0.3,0.1-0.4c-0.1-0.2-0.3-0.3-0.7-0.3c-0.4,0-0.7,0.1-1,0.4c-0.3,0.3-0.4,0.6-0.4,1
    c0,0.6,0.5,1.2,1.6,1.9l0.9,0.6l0.8,0.6l0.7,0.7c0.6,0.6,0.9,1.5,0.8,2.3c0,0.9-0.3,1.7-1,2.3c-0.6,0.6-1.4,0.9-2.3,0.9
    c-0.8,0-1.7-0.3-2.3-0.8C218.8,149.5,218.5,148.8,218.5,148.1z"/>
  <path fill="#4C697D" d="M227.4,149.6h3.8l1.8-1.7h0.3c0.2,0,0.4,0.1,0.4,0.3v0.3l-1.2,1.9c-0.1,0.2-0.3,0.2-0.5,0.2h-5.8
    c-0.3,0-0.4-0.1-0.4-0.4s0.1-0.4,0.4-0.4h0.4v-9.1h-0.4c-0.3,0-0.4-0.2-0.4-0.5s0.1-0.5,0.4-0.5h4l0.5,0.2l1.1,1.2v0.5h-0.6
    l-1.2-1.1h-2.5v1.9h1.8c-0.1-0.1-0.1-0.2-0.1-0.3c0-0.1,0-0.2,0.1-0.3h0.4l0.3,0.2l0.7,1.2v0.5h-0.3l-0.3-0.2l-0.2-0.3h-2.4
    L227.4,149.6z"/>
  <path fill="#4C697D" d="M238.5,140.5c-0.3,0-0.4-0.2-0.4-0.5s0.1-0.5,0.4-0.5h1.7c0.3,0,0.4,0.2,0.4,0.5s-0.1,0.5-0.4,0.5h-0.3
    l2.9,8.7l1.5-4l-1.5-4.6h-0.7c-0.1-0.1-0.1-0.2-0.1-0.3c0-0.1,0-0.2,0.1-0.3h2.3c0.1,0.1,0.1,0.2,0.1,0.3c0,0.1,0,0.2-0.1,0.3h-0.6
    l2.9,8.8l2.6-7.4c0.1-0.3,0.2-0.7,0.2-1c0-0.2-0.1-0.4-0.3-0.4c-0.2,0.2-0.4,0.4-0.7,0.4l-0.6-0.2c-0.1-0.1-0.2-0.3-0.2-0.5
    c0-0.2,0.1-0.5,0.3-0.6c0.3-0.2,0.6-0.2,0.9-0.2c0.4,0,0.8,0.2,1,0.5c0.3,0.3,0.4,0.6,0.4,1c0,0.5-0.1,1-0.3,1.4l-2.9,8.1
    c0,0.2-0.3,0.4-0.5,0.4h-0.4l-0.2-0.3l-1.3-3.9l-1.4,3.9c0,0.2-0.3,0.4-0.5,0.4c-0.2,0-0.5-0.2-0.5-0.4l-3.3-9.8L238.5,140.5z"/>
  <path fill="#4C697D" d="M251.8,149.6v-9.1h-0.5c-0.3,0-0.4-0.2-0.4-0.5s0.1-0.5,0.4-0.5h2c0.3,0,0.4,0.2,0.4,0.5s-0.1,0.5-0.4,0.5
    h-0.5v9.1h0.5c0.3,0,0.4,0.1,0.4,0.4c0,0.3-0.1,0.4-0.4,0.4h-2c-0.3,0-0.4-0.1-0.4-0.4s0.1-0.4,0.4-0.4H251.8z"/>
  <path fill="#4C697D" d="M256.3,149.6h3.8l1.8-1.7h0.3c0.2,0,0.4,0.1,0.4,0.3v0.3l-1.2,1.9c-0.1,0.2-0.3,0.2-0.5,0.2h-5.8
    c-0.3,0-0.4-0.1-0.4-0.4s0.1-0.4,0.4-0.4h0.4v-9.1h-0.4c-0.3,0-0.4-0.2-0.4-0.5s0.1-0.5,0.4-0.5h4l0.5,0.2l1.1,1.2v0.5h-0.6
    l-1.2-1.1h-2.5v1.9h1.8c-0.1-0.1-0.1-0.2-0.1-0.3c0-0.1,0-0.2,0.1-0.3h0.4l0.3,0.2l0.7,1.2v0.5h-0.3l-0.3-0.2l-0.2-0.3h-2.4
    L256.3,149.6z"/>
  <path fill="#4C697D" d="M270.7,139.6c0.3,0,0.4,0.2,0.4,0.5s-0.1,0.5-0.4,0.5h-0.5v9.6c0.1,0.2-0.1,0.4-0.3,0.5c-0.1,0-0.2,0-0.2,0
    c-0.2,0-0.5-0.1-0.6-0.3l-4.6-8.8v8.1h0.4c0.3,0,0.4,0.1,0.4,0.4c0,0.3-0.1,0.4-0.4,0.4h-1.7c-0.3,0-0.4-0.1-0.4-0.4
    s0.1-0.4,0.4-0.4h0.4v-9.1h-0.4c-0.3,0-0.4-0.2-0.4-0.5s0.1-0.5,0.4-0.5h1.1c0.2,0,0.4,0.1,0.4,0.3l4.5,8.6v-7.9h-0.4
    c-0.3,0-0.4-0.2-0.4-0.5s0.1-0.5,0.4-0.5L270.7,139.6z"/>
  <path fill="#4C697D" d="M278.1,149.6h3.8l1.8-1.7h0.3c0.2,0,0.4,0.1,0.4,0.3v0.3l-1.2,1.9c-0.1,0.2-0.3,0.2-0.5,0.2h-5.8
    c-0.3,0-0.4-0.1-0.4-0.4s0.1-0.4,0.4-0.4h0.4v-9.1h-0.4c-0.3,0-0.4-0.2-0.4-0.5s0.1-0.5,0.4-0.5h4l0.5,0.2l1.1,1.2v0.5h-0.7
    l-1.2-1.1h-2.5v1.9h1.8c-0.1-0.1-0.1-0.2-0.1-0.3c0-0.1,0-0.2,0.1-0.3h0.4l0.3,0.2l0.7,1.2v0.5H281l-0.3-0.2l-0.2-0.3h-2.4V149.6z"
    />
  <path fill="#4C697D" d="M285.5,140.5c-0.3,0-0.4-0.1-0.4-0.4c0-0.1,0-0.2,0.1-0.3h2.6c0.1,0.1,0.1,0.2,0.1,0.3c0,0.1,0,0.2-0.1,0.3
    h-0.6l1.5,3l1.5-3h-0.7c-0.1-0.1-0.1-0.2-0.1-0.3c0-0.1,0-0.2,0.1-0.3h2.4c0.1,0.1,0.1,0.2,0.1,0.3c0,0.3-0.1,0.4-0.4,0.4h-0.5
    l-2,3.9l2.7,5.2h0.5c0.3,0,0.4,0.1,0.4,0.4c0,0.3-0.1,0.4-0.4,0.4h-1.9c-0.3,0-0.4-0.1-0.4-0.4s0.1-0.4,0.4-0.4h0.4l-2.2-4.3
    l-2.2,4.3h0.7c0.1,0.2,0.1,0.4,0,0.6H285c-0.3,0-0.4-0.1-0.4-0.4s0.1-0.4,0.4-0.4h0.5l2.7-5.2l-2-3.9L285.5,140.5z"/>
  <path fill="#4C697D" d="M300.4,149.6c0.3,0,0.4,0.1,0.4,0.4c0,0.3-0.1,0.4-0.4,0.4h-2.1c-0.1-0.1-0.1-0.2-0.1-0.3
    c0-0.3,0.1-0.4,0.4-0.4h0.4v-6.5h-4.1v6.5h0.4c0.3,0,0.4,0.1,0.4,0.4c0,0.3-0.1,0.4-0.4,0.4h-1.8c-0.3,0-0.4-0.1-0.4-0.4
    s0.1-0.4,0.4-0.4h0.4v-9.1h-0.4c-0.3,0-0.4-0.2-0.4-0.5s0.1-0.5,0.4-0.5h1.8c0.3,0,0.4,0.2,0.4,0.5s-0.1,0.5-0.4,0.5h-0.4v1.8h4.1
    v-1.8h-0.4c-0.3,0-0.4-0.2-0.4-0.5s0.1-0.5,0.4-0.5h1.8c0.3,0,0.4,0.2,0.4,0.5s-0.1,0.5-0.4,0.5H300v9.1L300.4,149.6z"/>
  <path fill="#4C697D" d="M302.7,149.6v-9.1h-0.5c-0.3,0-0.4-0.2-0.4-0.5s0.1-0.5,0.4-0.5h2c0.3,0,0.4,0.2,0.4,0.5s-0.1,0.5-0.4,0.5
    h-0.5v9.1h0.5c0.3,0,0.4,0.1,0.4,0.4c0,0.3-0.1,0.4-0.4,0.4h-2c-0.3,0-0.4-0.1-0.4-0.4s0.1-0.4,0.4-0.4H302.7z"/>
  <path fill="#4C697D" d="M306.2,140.5h-0.4c-0.3,0-0.4-0.2-0.4-0.5s0.1-0.5,0.4-0.5h2c2.3,0,3.4,0.6,3.4,1.9c0,0.4-0.1,0.7-0.3,1
    c-0.2,0.3-0.5,0.4-0.8,0.5c0.6,0.2,1.2,0.6,1.5,1.2c0.4,0.7,0.6,1.5,0.6,2.3c0,1-0.3,2-1,2.8c-0.9,0.8-2,1.2-3.2,1.1h-2.5
    c-0.1-0.1-0.1-0.2-0.1-0.3c0-0.3,0.1-0.4,0.4-0.4h0.4V140.5z M307.2,142.6h1.2l1.4-0.2c0.3-0.2,0.5-0.5,0.5-0.8
    c0-0.8-0.7-1.2-2.2-1.2h-0.9V142.6z M307.2,143.4v6.1h0.8c0.9,0.1,1.8-0.2,2.5-0.8c0.6-0.7,0.9-1.5,0.8-2.4
    c0.1-0.8-0.2-1.7-0.8-2.3c-0.6-0.5-1.3-0.7-2.1-0.7L307.2,143.4z"/>
  <path fill="#4C697D" d="M313.8,149.6v-9.1h-0.5c-0.3,0-0.4-0.2-0.4-0.5s0.1-0.5,0.4-0.5h2c0.3,0,0.4,0.2,0.4,0.5s-0.1,0.5-0.4,0.5
    h-0.5v9.1h0.5c0.3,0,0.4,0.1,0.4,0.4c0,0.3-0.1,0.4-0.4,0.4h-2c-0.3,0-0.4-0.1-0.4-0.4s0.1-0.4,0.4-0.4H313.8z"/>
  <path fill="#4C697D" d="M317.5,139v0.6h5.5v-0.2c0.1-0.3,0.3-0.5,0.5-0.5h0.3c0.1,0.1,0.1,0.2,0.1,0.3c0,0.1,0,0.2-0.1,0.3
    l-0.6,1.2c-0.1,0.2-0.2,0.3-0.3,0.3s-0.4-0.1-0.4-0.3v-0.5h-2.3v9.2h0.4c0.3,0,0.4,0.1,0.4,0.4c0,0.3-0.1,0.4-0.4,0.4h-1.8
    c-0.3,0-0.4-0.1-0.4-0.4s0.1-0.4,0.4-0.4h0.4v-9.2h-2.3l-0.3,0.4l-0.3,0.2H316v-0.5l0.4-1.2c0.1-0.3,0.2-0.4,0.5-0.4L317.5,139z"/>
  <path fill="#4C697D" d="M325.5,149.6v-9.1H325c-0.3,0-0.4-0.2-0.4-0.5s0.1-0.5,0.4-0.5h2c0.3,0,0.4,0.2,0.4,0.5s-0.1,0.5-0.4,0.5
    h-0.5v9.1h0.5c0.3,0,0.4,0.1,0.4,0.4c0,0.3-0.1,0.4-0.4,0.4h-2c-0.3,0-0.4-0.1-0.4-0.4s0.1-0.4,0.4-0.4H325.5z"/>
  <path fill="#4C697D" d="M337,145.1c0.1,1.5-0.4,2.9-1.3,4.1c-0.8,1-2,1.5-3.2,1.5c-1.2,0-2.4-0.5-3.2-1.5c-0.9-1.2-1.4-2.7-1.3-4.2
    c-0.1-1.5,0.4-2.9,1.3-4.1c1.4-1.7,4-2,5.8-0.5c0.2,0.2,0.4,0.3,0.5,0.5C336.6,142.1,337.1,143.6,337,145.1z M335.6,142.9
    c-0.3-0.7-0.7-1.3-1.2-1.8c-0.5-0.5-1.2-0.8-1.9-0.8c-0.7,0-1.4,0.2-1.9,0.7c-0.6,0.5-1,1.1-1.2,1.8c-0.3,0.7-0.4,1.4-0.4,2.2
    c0,1.2,0.3,2.4,1,3.4c0.7,1.4,2.3,2,3.7,1.3c0.5-0.3,1-0.7,1.3-1.2c0.6-1,0.9-2.1,0.9-3.3C335.9,144.4,335.8,143.6,335.6,142.9
    L335.6,142.9z"/>
  <path fill="#4C697D" d="M345.4,139.6c0.3,0,0.4,0.2,0.4,0.5s-0.1,0.5-0.4,0.5h-0.5v9.6c0.1,0.2-0.1,0.4-0.3,0.5c-0.1,0-0.2,0-0.2,0
    c-0.2,0-0.5-0.1-0.6-0.3l-4.6-8.8v8.1h0.4c0.3,0,0.4,0.1,0.4,0.4c0,0.3-0.1,0.4-0.4,0.4h-1.7c-0.3,0-0.4-0.1-0.4-0.4
    s0.1-0.4,0.4-0.4h0.4v-9.1h-0.4c-0.3,0-0.4-0.2-0.4-0.5s0.1-0.5,0.4-0.5h1.1c0.2,0,0.4,0.1,0.4,0.3l4.5,8.6v-7.9h-0.4
    c-0.3,0-0.4-0.2-0.4-0.5s0.1-0.5,0.4-0.5L345.4,139.6z"/>
  <path fill="#4C697D" d="M355.4,150c-0.6,0.4-1.3,0.7-2.1,0.7c-0.6,0-1.2-0.1-1.7-0.5c-0.4-0.4-0.6-0.9-0.6-1.5c0-0.8,0.3-1.5,0.9-2
    l1.3-1l0,0c0-0.8,0.2-1.7,0.6-2.4c0.3-0.7,1-1.1,1.7-1.1c0.4,0,0.7,0.1,1,0.4c0.5,0.5,0.5,1.3,0.1,1.8l-0.4,0.5l-0.5,0.4l-0.5,0.3
    l-1.1,0.6c0.1,0.6,0.2,1.1,0.5,1.6c0.3,0.5,0.6,0.9,1,1.3l1-1.1l1.1-1.9c0.1-0.2,0.2-0.3,0.4-0.3s0.4,0.1,0.4,0.4
    c0,0.1,0,0.2-0.1,0.3c-0.5,1.2-1.3,2.2-2.3,3.1c0.4,0.3,0.9,0.4,1.4,0.4c1.3,0,2-1,2-3c0-0.7-0.1-1.4-0.5-2
    c-0.3-0.5-0.7-0.8-1.2-1.1c-0.2,0-0.3-0.2-0.3-0.4c0-0.3,0.1-0.5,0.4-0.5h0.4c0.6,0.3,1,0.8,1.3,1.4c0.5,0.7,0.7,1.6,0.7,2.4l0,0
    c0,0.9-0.2,1.8-0.7,2.6c-0.5,0.7-1.3,1.2-2.2,1.1C356.7,150.5,356,150.4,355.4,150z M352.6,147.1l-0.5,0.7c-0.2,0.3-0.3,0.6-0.3,1
    c0,0.3,0.1,0.6,0.3,0.9c0.3,0.3,0.7,0.4,1.1,0.4c0.6,0,1.1-0.2,1.6-0.5c-0.8-0.8-1.3-1.8-1.5-2.9L352.6,147.1z M355.4,142.9
    c-0.7,0-1.2,0.8-1.4,2.4c1.3-0.7,2-1.4,2-1.9c0-0.2-0.1-0.3-0.2-0.4L355.4,142.9z"/>
  <path fill="#4C697D" d="M372.5,147.7h0.3l0.3,0.2c0.1,0.1,0.1,0.2,0.1,0.3c-0.1,0.7-0.5,1.3-1.1,1.7c-0.7,0.6-1.6,0.9-2.5,0.9
    c-1.2,0-2.4-0.5-3.2-1.4c-0.9-1.2-1.4-2.6-1.3-4.1c-0.1-1.5,0.4-3,1.3-4.2c0.8-0.9,1.9-1.5,3.1-1.5c0.6,0,1.1,0.1,1.6,0.4
    c0.4,0.2,0.7,0.6,0.7,1.1c0,0.2-0.1,0.4-0.2,0.5l-0.5,0.2c-0.3,0-0.5-0.1-0.7-0.3c-0.2-0.2-0.3-0.4-0.3-0.7v-0.3h-0.8
    c-0.9,0-1.8,0.5-2.3,1.3c-0.7,1-1,2.1-1,3.3c0,0.8,0.1,1.5,0.4,2.2c0.2,0.7,0.7,1.4,1.2,1.9c0.5,0.5,1.1,0.8,1.8,0.8
    c0.6,0,1.2-0.2,1.7-0.5c0.5-0.3,0.8-0.8,1-1.3L372.5,147.7z"/>
  <path fill="#4C697D" d="M382.5,145.1c0.1,1.5-0.4,2.9-1.3,4.1c-0.8,1-2,1.5-3.2,1.5c-1.2,0-2.4-0.5-3.2-1.5
    c-0.9-1.2-1.4-2.7-1.3-4.2c-0.1-1.5,0.4-2.9,1.3-4.1c0.8-1,2-1.5,3.2-1.5c1.2,0,2.4,0.5,3.2,1.5
    C382.1,142.1,382.6,143.6,382.5,145.1z M381.1,142.9c-0.3-0.7-0.7-1.3-1.2-1.8c-0.5-0.5-1.2-0.8-1.9-0.8c-0.7,0-1.4,0.2-1.9,0.7
    c-0.6,0.5-1,1.1-1.2,1.8c-0.3,0.7-0.4,1.4-0.4,2.2c0,1.2,0.3,2.4,1,3.4c0.7,1.4,2.3,2,3.7,1.3c0.5-0.3,1-0.7,1.3-1.2
    c0.6-1,0.9-2.1,0.9-3.3C381.4,144.4,381.3,143.6,381.1,142.9L381.1,142.9z"/>
  <path fill="#4C697D" d="M391,139.6c0.3,0,0.4,0.2,0.4,0.5s-0.1,0.5-0.4,0.5h-0.5v9.6c0.1,0.2-0.1,0.4-0.3,0.5c-0.1,0-0.2,0-0.2,0
    c-0.2,0-0.5-0.1-0.6-0.3l-4.6-8.8v8.1h0.4c0.3,0,0.4,0.1,0.4,0.4c0,0.3-0.1,0.4-0.4,0.4h-1.7c-0.3,0-0.4-0.1-0.4-0.4
    s0.1-0.4,0.4-0.4h0.4v-9.1h-0.4c-0.3,0-0.4-0.2-0.4-0.5s0.1-0.5,0.4-0.5h1.3c0.2,0,0.4,0.1,0.4,0.3l4.5,8.6v-7.9h-0.4
    c-0.3,0-0.4-0.2-0.4-0.5s0.1-0.5,0.4-0.5L391,139.6z"/>
  <path fill="#4C697D" d="M393.3,149.2c-0.9-1.2-1.3-2.6-1.2-4.1c-0.1-1.5,0.4-2.9,1.3-4.1c0.8-0.9,1.9-1.5,3.1-1.5
    c0.6,0,1.1,0.1,1.6,0.4c0.4,0.2,0.7,0.6,0.7,1.1c0,0.2-0.1,0.4-0.2,0.5l-0.5,0.2c-0.3,0-0.5-0.1-0.7-0.3c-0.2-0.1-0.3-0.3-0.3-0.5
    c0-0.1,0-0.3,0.1-0.4h-0.7c-1,0-1.9,0.6-2.4,1.4c-0.7,1-1.1,2.2-1,3.4c0,0.8,0.1,1.6,0.4,2.3c0.2,0.7,0.7,1.3,1.2,1.8
    c0.5,0.5,1.2,0.7,1.9,0.7c0.7,0,1.3-0.3,1.7-0.9c0.4-0.6,0.6-1.3,0.6-2v-1h-2c-0.3,0-0.4-0.1-0.4-0.4s0.1-0.4,0.4-0.4h3.9
    c0.2,0,0.4,0.1,0.4,0.4s-0.1,0.4-0.4,0.4h-1v0.9c-0.1,0.7,0.1,1.3,0.5,1.9c0.2,0.2,0.3,0.4,0.3,0.6c0,0.2-0.1,0.3-0.2,0.4h-0.3
    c-0.3,0-0.6-0.3-0.9-0.9c-0.2,0.5-0.6,0.9-1,1.2c-0.5,0.3-1.2,0.5-1.8,0.5C395.2,150.8,394,150.2,393.3,149.2z"/>
  <path fill="#4C697D" d="M408.2,149.2c0.1-0.2,0.4-0.3,0.6-0.3c0.3-0.1,0.5,0.1,0.6,0.4c0,0.1,0,0.2,0,0.2c0,0.3-0.2,0.6-0.4,0.8
    c-0.3,0.3-0.6,0.4-1,0.4c-1-0.1-1.8-0.7-2.1-1.6l-0.6-1c-0.3-0.3-0.7-0.5-1.1-0.5h-0.7v1.8h0.5c0.3,0,0.4,0.1,0.4,0.4
    s-0.1,0.4-0.4,0.4h-1.8c-0.3,0-0.4-0.1-0.4-0.4s0.1-0.4,0.4-0.4h0.4v-9.1h-0.4c-0.3,0-0.4-0.2-0.4-0.5s0.1-0.5,0.4-0.5h1.6
    c1.3-0.1,2.7,0.3,3.8,1c1,0.6,1.5,1.7,1.5,2.9c0,1-0.3,2-1,2.7c-0.6,0.7-1.5,1.2-2.5,1.2c0.7,0.2,1.2,0.7,1.4,1.3l0.4,0.9
    c0.1,0.2,0.4,0.3,0.6,0.3C408,149.5,408.1,149.3,408.2,149.2z M404.9,146.8c0.9,0,1.7-0.3,2.3-0.9c0.6-0.6,0.9-1.5,0.9-2.4
    c0-0.9-0.4-1.8-1.2-2.3c-0.8-0.6-1.8-0.8-2.8-0.8c-0.5,0-0.7,0.1-0.7,0.2v6c0,0.2,0.5,0.3,1.4,0.3L404.9,146.8z"/>
  <path fill="#4C697D" d="M411.8,149.6h3.8l1.8-1.7h0.3c0.2,0,0.4,0.1,0.4,0.3v0.3l-1.2,1.9c-0.1,0.2-0.3,0.2-0.5,0.2h-5.8
    c-0.3,0-0.4-0.1-0.4-0.4s0.1-0.4,0.4-0.4h0.4v-9.1h-0.4c-0.3,0-0.4-0.2-0.4-0.5s0.1-0.5,0.4-0.5h4l0.5,0.2l1.1,1.2v0.5h-0.6
    l-1.2-1.1h-2.6v1.9h1.8c-0.1-0.1-0.1-0.2-0.1-0.3c0-0.1,0-0.2,0.1-0.3h0.3l0.3,0.2l0.7,1.2v0.5h-0.3l-0.3-0.2l-0.2-0.3h-2.3V149.6z
    "/>
  <path fill="#4C697D" d="M418.2,148.1c0-0.3,0.1-0.6,0.3-0.9c0.1-0.2,0.3-0.4,0.6-0.4l0.5,0.2c0.1,0.1,0.2,0.3,0.2,0.5
    c0,0.4-0.2,0.8-0.5,1c0.1,0.5,0.4,0.9,0.8,1.1c0.4,0.3,0.8,0.4,1.3,0.4c0.6,0,1.3-0.2,1.7-0.7c0.4-0.4,0.6-1,0.6-1.6
    c0-0.6-0.2-1.2-0.7-1.6l-1.3-1l-0.9-0.6c-0.5-0.3-1-0.7-1.4-1.2c-0.3-0.5-0.5-1-0.5-1.6c0-0.6,0.2-1.2,0.7-1.6
    c0.5-0.4,1.1-0.7,1.7-0.7c0.6,0,1.1,0.1,1.6,0.4c0.4,0.2,0.7,0.6,0.7,1.1c0,0.2-0.1,0.4-0.2,0.5l-0.5,0.2c-0.3,0-0.5-0.1-0.7-0.3
    c-0.2-0.1-0.3-0.3-0.3-0.5c0-0.1,0-0.3,0.1-0.4c-0.1-0.2-0.3-0.3-0.7-0.3c-0.4,0-0.7,0.1-1,0.4c-0.3,0.3-0.4,0.6-0.4,1
    c0,0.6,0.5,1.2,1.6,1.9l0.9,0.6l0.8,0.6l0.7,0.7c0.6,0.6,0.9,1.5,0.8,2.3c0,0.9-0.3,1.7-1,2.3c-0.6,0.6-1.4,0.9-2.3,0.9
    c-0.8,0-1.7-0.3-2.3-0.8C418.5,149.5,418.2,148.8,418.2,148.1z"/>
  <path fill="#4C697D" d="M425.1,148.1c0-0.3,0.1-0.6,0.3-0.9c0.1-0.2,0.3-0.4,0.6-0.4l0.5,0.2c0.1,0.1,0.2,0.3,0.2,0.5
    c0,0.4-0.2,0.8-0.5,1c0.1,0.5,0.4,0.9,0.8,1.1c0.4,0.3,0.8,0.4,1.3,0.4c0.6,0,1.3-0.2,1.7-0.7c0.4-0.4,0.6-1,0.6-1.6
    c0-0.6-0.2-1.2-0.7-1.6l-1.3-1l-0.9-0.6c-0.5-0.3-1-0.7-1.4-1.2c-0.3-0.5-0.5-1-0.5-1.6c0-0.6,0.2-1.2,0.7-1.6
    c0.5-0.4,1.1-0.7,1.7-0.7c0.6,0,1.1,0.1,1.6,0.4c0.4,0.2,0.7,0.6,0.7,1.1c0,0.2-0.1,0.4-0.2,0.5l-0.5,0.2c-0.3,0-0.5-0.1-0.7-0.3
    c-0.2-0.1-0.3-0.3-0.3-0.5c0-0.1,0-0.3,0.1-0.4c-0.1-0.2-0.3-0.3-0.7-0.3c-0.4,0-0.7,0.1-1,0.4c-0.3,0.3-0.4,0.6-0.4,1
    c0,0.6,0.5,1.2,1.6,1.9l0.9,0.6l0.8,0.6l0.7,0.7c0.6,0.6,0.9,1.5,0.8,2.3c0,0.9-0.3,1.7-1,2.3c-0.6,0.6-1.4,0.9-2.3,0.9
    c-0.8,0-1.7-0.3-2.3-0.8C425.4,149.5,425.1,148.8,425.1,148.1z"/>
  <path fill="#4C697D" d="M443.6,147.7h0.3l0.3,0.2c0.1,0.1,0.1,0.2,0.1,0.3c-0.1,0.7-0.5,1.3-1.1,1.7c-0.7,0.6-1.6,0.9-2.5,0.9
    c-1.2,0-2.4-0.5-3.2-1.4c-0.9-1.2-1.4-2.6-1.3-4.1c-0.1-1.5,0.4-3,1.3-4.2c0.8-0.9,1.9-1.5,3.1-1.5c0.6,0,1.1,0.1,1.6,0.4
    c0.4,0.2,0.7,0.6,0.7,1.1c0,0.2-0.1,0.4-0.2,0.5l-0.5,0.2c-0.3,0-0.5-0.1-0.7-0.3c-0.2-0.2-0.3-0.4-0.3-0.7v-0.3h-0.8
    c-0.9,0-1.8,0.5-2.3,1.3c-0.7,1-1,2.1-1,3.3c0,0.8,0.1,1.5,0.4,2.2c0.2,0.7,0.7,1.4,1.2,1.9c0.5,0.5,1.1,0.8,1.8,0.8
    c0.6,0,1.2-0.2,1.7-0.5c0.5-0.3,0.8-0.8,1-1.3L443.6,147.7z"/>
  <path fill="#4C697D" d="M446.7,149.6h3.8l1.8-1.7h0.3c0.2,0,0.4,0.1,0.4,0.3v0.3l-1.2,1.9c-0.1,0.2-0.3,0.2-0.5,0.2h-5.8
    c-0.3,0-0.4-0.1-0.4-0.4s0.1-0.4,0.4-0.4h0.4v-9.1h-0.4c-0.3,0-0.4-0.2-0.4-0.5s0.1-0.5,0.4-0.5h4l0.5,0.2l1.1,1.2v0.5h-0.6
    l-1.2-1.1h-2.5v1.9h1.8c-0.1-0.1-0.1-0.2-0.1-0.3c0-0.1,0-0.2,0.1-0.3h0.3l0.3,0.2l0.7,1.2v0.5h-0.3l-0.3-0.2l-0.2-0.3h-2.4
    L446.7,149.6z"/>
  <path fill="#4C697D" d="M461.1,139.6c0.3,0,0.4,0.2,0.4,0.5s-0.1,0.5-0.4,0.5h-0.5v9.6c0.1,0.2-0.1,0.4-0.3,0.5c-0.1,0-0.2,0-0.2,0
    c-0.2,0-0.5-0.1-0.6-0.3l-4.6-8.8v8.1h0.4c0.3,0,0.4,0.1,0.4,0.4c0,0.3-0.1,0.4-0.4,0.4h-1.5c-0.3,0-0.4-0.1-0.4-0.4
    s0.1-0.4,0.4-0.4h0.4v-9.1h-0.4c-0.3,0-0.4-0.2-0.4-0.5s0.1-0.5,0.4-0.5h1.1c0.2,0,0.4,0.1,0.4,0.3l4.5,8.6v-7.9h-0.4
    c-0.3,0-0.4-0.2-0.4-0.5s0.1-0.5,0.4-0.5L461.1,139.6z"/>
  <path fill="#4C697D" d="M463.4,139v0.6h5.5v-0.2c0.1-0.3,0.3-0.5,0.5-0.5h0.3c0.1,0.1,0.1,0.2,0.1,0.3c0,0.1,0,0.2-0.1,0.3
    l-0.6,1.2c-0.1,0.2-0.2,0.3-0.3,0.3s-0.4-0.1-0.4-0.3v-0.5h-2.3v9.2h0.4c0.3,0,0.4,0.1,0.4,0.4c0,0.3-0.1,0.4-0.4,0.4h-1.8
    c-0.3,0-0.4-0.1-0.4-0.4s0.1-0.4,0.4-0.4h0.4v-9.2h-2.3l-0.3,0.4l-0.3,0.2h-0.3v-0.5l0.4-1.2c0.1-0.3,0.2-0.4,0.5-0.4L463.4,139z"
    />
  <path fill="#4C697D" d="M480.8,149.6h3.8l1.8-1.7h0.3c0.2,0,0.4,0.1,0.4,0.3v0.3l-1.2,1.9c-0.1,0.2-0.3,0.2-0.5,0.2h-6
    c-0.3,0-0.4-0.1-0.4-0.4s0.1-0.4,0.4-0.4h0.4v-9.1h-0.4c-0.3,0-0.4-0.2-0.4-0.5s0.1-0.5,0.4-0.5h4l0.5,0.2l1.1,1.2v0.5h-0.6
    l-1.2-1.1h-2.5v1.9h1.8c-0.1-0.1-0.1-0.2-0.1-0.3c0-0.1,0-0.2,0.1-0.3h0.3l0.3,0.2l0.7,1.2v0.5h-0.3l-0.3-0.2l-0.2-0.3h-2.4
    L480.8,149.6z"/>
  <path fill="#4C697D" d="M476.8,149.2c0.1-0.2,0.4-0.3,0.6-0.3c0.3-0.1,0.5,0.1,0.6,0.4c0,0.1,0,0.2,0,0.2c0,0.3-0.2,0.6-0.4,0.8
    c-0.3,0.3-0.6,0.4-1,0.4c-1-0.1-1.8-0.7-2.1-1.6l-0.6-1c-0.3-0.3-0.7-0.5-1.1-0.5h-0.7v1.8h0.5c0.3,0,0.4,0.1,0.4,0.4
    s-0.1,0.4-0.4,0.4h-1.8c-0.3,0-0.4-0.1-0.4-0.4s0.1-0.4,0.4-0.4h0.4v-9.1h-0.4c-0.3,0-0.4-0.2-0.4-0.5s0.1-0.5,0.4-0.5h1.8
    c1.3-0.1,2.7,0.3,3.8,1c1,0.6,1.5,1.7,1.5,2.9c0,1-0.3,2-1,2.7c-0.6,0.7-1.5,1.2-2.5,1.2c0.7,0.2,1.2,0.7,1.4,1.3l0.4,0.9
    c0.1,0.2,0.4,0.3,0.6,0.3C476.8,149.5,476.8,149.3,476.8,149.2z M473.5,146.8c0.9,0,1.7-0.3,2.3-0.9c0.6-0.6,0.9-1.5,0.9-2.4
    c0-0.9-0.4-1.8-1.2-2.3c-0.8-0.6-1.8-0.8-2.8-0.8c-0.5,0-0.7,0.1-0.7,0.2v6C472.1,146.8,472.6,146.9,473.5,146.8L473.5,146.8z"/>
</g>
</svg>